<?xml version="1.0" ?>
<!-- Created with Inkscape (http://www.inkscape.org/) -->

<svg
   xmlns:dc="http://purl.org/dc/elements/1.1/"
   xmlns:cc="http://creativecommons.org/ns#"
   xmlns:rdf="http://www.w3.org/1999/02/22-rdf-syntax-ns#"
   xmlns:svg="http://www.w3.org/2000/svg"
   xmlns="http://www.w3.org/2000/svg"
   xmlns:sodipodi="http://sodipodi.sourceforge.net/DTD/sodipodi-0.dtd"
   xmlns:inkscape="http://www.inkscape.org/namespaces/inkscape"
   width="137.00986mm"
   height="107.29775mm"
   viewBox="0 0 485.468 380.18888"
   id="svg5357"
   version="1.1"
   width="110"
   height="107"
   inkscape:version="0.91 r13725"
   sodipodi:docname="Rhythmic_gymnastics_with_bows_and_ball.svg">
  <defs
     id="defs5359" />
  <sodipodi:namedview
     id="base"
     pagecolor="#ffffff"
     bordercolor="#666666"
     borderopacity="1.0"
     inkscape:pageopacity="0.0"
     inkscape:pageshadow="2"
     inkscape:zoom="0.7"
     inkscape:cx="71.221773"
     inkscape:cy="220.98898"
     inkscape:document-units="px"
     inkscape:current-layer="layer1"
     showgrid="false"
     fit-margin-top="0"
     fit-margin-left="0"
     fit-margin-right="0"
     fit-margin-bottom="0"
     inkscape:window-width="1538"
     inkscape:window-height="878"
     inkscape:window-x="54"
     inkscape:window-y="-8"
     inkscape:window-maximized="1" />
  <metadata
     id="metadata5362">
    <rdf:RDF>
      <cc:Work
         rdf:about="">
        <dc:format>image/svg+xml</dc:format>
        <dc:type
           rdf:resource="http://purl.org/dc/dcmitype/StillImage" />
        <dc:title></dc:title>
      </cc:Work>
    </rdf:RDF>
  </metadata>
  <g
     inkscape:label="Camada 1"
     inkscape:groupmode="layer"
     id="layer1"
     transform="translate(-191.55171,-402.26777)">
    <g
       transform="translate(298.29427,-864.83017)"
       id="g5238">
      <path
         sodipodi:nodetypes="csccssccscccsccscscccc"
         inkscape:connector-curvature="0"
         id="path4299"
         d="m 102.32309,1389.1916 c -9.121299,-5.228 -7.897699,-4.7831 -10.233599,-6.1179 -2.3359,-1.3348 -2.614,-1.4461 -2.0022,-3.1146 0.6117,-1.6685 0.5561,-3.2258 1.3348,-3.7263 0.7786,-0.5006 1.1123,-0.2781 4.4494,-0.8899 3.337,-0.6118 2.7808,-0.7786 3.7819,-1.168 1.001099,-0.3893 1.501699,-1.6129 1.279199,-2.169 -0.2224,-0.5562 -1.167899,-1.2792 -1.167899,-1.2792 0,0 1.779699,-0.6118 1.501599,-1.6685 -0.2781,-1.0568 -1.612899,-1.7798 -1.612899,-1.7798 0,0 1.557299,-0.4449 1.056799,-1.5017 -0.5006,-1.0567 -1.779799,-1.1679 -1.779799,-1.1679 0,0 1.0011,-0.1113 0.6674,-1.2792 -0.3337,-1.168 -1.0567,-1.6129 -1.6685,-1.5017 -0.6118,0.1112 -2.7809,1.5573 -3.0033,1.7241 -0.2225,0.1669 -2.1135,0.2225 -3.6708,0.3894 -1.5573,0.1668 -3.6151,2.5027 -4.06,3.2258 -0.445,0.723 -5.5061,5.7285 -7.6752,8.7875 -2.1691,3.0589 -2.5584,4.1157 -0.8899,6.5628 4.0072,6.6012 7.6292,11.7559 14.4049,17.4638 2.5584,2.1135 3.9488,4.7275 8.064499,7.6752 4.1156,2.9477 1.2236,-18.4649 1.2236,-18.4649 z"
         style="color:#000000;clip-rule:nonzero;display:inline;overflow:visible;visibility:visible;opacity:1;isolation:auto;mix-blend-mode:normal;color-interpolation:sRGB;color-interpolation-filters:linearRGB;solid-color:#000000;solid-opacity:1;fill:#ffffff;fill-opacity:1;fill-rule:evenodd;stroke:#000000;stroke-width:0.80400002;stroke-linecap:butt;stroke-linejoin:miter;stroke-miterlimit:4;stroke-dasharray:none;stroke-dashoffset:0;stroke-opacity:1;marker:none;color-rendering:auto;image-rendering:auto;shape-rendering:auto;text-rendering:auto;enable-background:accumulate" />
      <path
         sodipodi:nodetypes="cccccscccccccccscscccc"
         inkscape:connector-curvature="0"
         id="path4301"
         d="m 148.10669,1411.814 c 8.5734,-8.9666 12.6634,-11.6409 15.731,-14.3151 3.0675,-2.6743 9.4385,-10.3825 10.6183,-11.7196 1.1799,-1.3371 0.5506,-2.5956 -1.1011,-4.8766 -1.6518,-2.281 -3.0676,-6.2137 -6.4497,-7.9441 -3.3822,-1.7304 -3.1069,-2.8709 -5.9384,-2.9889 -2.8316,-0.118 -4.2081,-0.3539 -5.3879,-0.3146 -1.1798,0.039 -1.8877,0.8259 -1.8484,1.4158 0.039,0.5899 0.7473,1.4944 0.7473,1.4944 0,0 -1.4945,0.5506 -1.4158,1.4551 0.079,0.9046 0.8258,0.9046 0.8258,0.9046 0,0 -1.1011,0.2359 -1.0225,1.1405 0.079,0.9045 0.5899,2.0057 0.5899,2.0057 0,0 -0.9045,0.2359 -0.8652,1.2584 0.039,1.0225 0.039,1.3372 0.8259,1.6124 0.7866,0.2753 3.8148,0.9439 5.3092,0.9439 1.4944,0 1.718,-0.2583 2.2185,0.075 0.3539,0.2359 2.1532,0.4996 4.0038,1.724 0.3766,0.2492 -1.1698,1.2623 -2.669,1.9467 -5.405,2.9015 -9.6763,3.9367 -14.0155,6.2292 -0.8899,0.6118 -4.6719,10.1779 -4.6719,10.1779 z"
         style="color:#000000;clip-rule:nonzero;display:inline;overflow:visible;visibility:visible;opacity:1;isolation:auto;mix-blend-mode:normal;color-interpolation:sRGB;color-interpolation-filters:linearRGB;solid-color:#000000;solid-opacity:1;fill:#ffffff;fill-opacity:1;fill-rule:evenodd;stroke:#000000;stroke-width:0.80400002;stroke-linecap:butt;stroke-linejoin:miter;stroke-miterlimit:4;stroke-dasharray:none;stroke-dashoffset:0;stroke-opacity:1;marker:none;color-rendering:auto;image-rendering:auto;shape-rendering:auto;text-rendering:auto;enable-background:accumulate" />
      <path
         sodipodi:nodetypes="zzcczsscccccz"
         inkscape:connector-curvature="0"
         id="path4289"
         d="m 78.207391,1539.1194 c 0.5808,-1.893 2.7099,-2.985 5.5582,-2.985 2.8483,0 3.3051,1.6057 5.3501,1.0551 2.6743,-0.5505 3.5395,-2.9102 6.607,-3.854 2.457,-0.6603 1.7902,4.182 3.0508,5.9214 1.260599,1.7395 9.642399,4.1526 12.361599,7.5015 1.7361,2.1382 -5.3021,-33.0383 -8.3635,-48.5803 -2.3233,-11.7947 -6.289599,-19.5715 -5.048199,-19.2932 l 28.910599,4.6622 0.1573,80.2277 -35.866499,-2.6742 -11.0433,-16.4455 c 0,0 -2.255,-3.6427 -1.6741,-5.5357 z"
         style="fill:#ffffff;fill-rule:evenodd;stroke:#000000;stroke-width:1px;stroke-linecap:butt;stroke-linejoin:miter;stroke-opacity:1" />
      <path
         sodipodi:nodetypes="csccccscccc"
         inkscape:connector-curvature="0"
         id="path4328"
         d="m 171.23119,1545.8415 c -2.3596,1.4945 -2.5956,2.8316 -2.7529,5.0339 -0.1573,2.2024 -0.9439,5.5059 -1.1798,6.5284 -0.236,1.0225 -7.6295,8.7306 -7.6295,8.7306 l -6.607,-11.4049 c 0,0 8.3374,-7.8654 8.416,-9.2026 0.079,-1.3371 -1.5731,-4.9552 -0.3146,-6.371 1.2585,-1.4158 2.517,0.039 4.0114,0.039 4.6627,-0.2717 5.304,-3.637 8.2981,-1.2192 2.9112,2.7066 -0.1019,5.622 -2.2417,7.8655 z"
         style="fill:#ffffff;fill-rule:evenodd;stroke:#000000;stroke-width:1px;stroke-linecap:butt;stroke-linejoin:miter;stroke-opacity:1" />
      <path
         sodipodi:nodetypes="ccccccccc"
         inkscape:connector-curvature="0"
         id="path4297"
         d="m 114.67009,1376.1772 c 1.0017,4.6348 3.129,9.0059 2.6696,12.7919 -0.6674,2.5584 -1.891,9.7887 -1.891,9.7887 l 18.9099,7.6751 c 0,0 -0.1112,-11.4571 -0.6674,-14.0155 -1.4791,-5.7585 -0.5214,-11.6104 1.2236,-16.7964 1.0011,-2.8921 -4.227,-7.119 -4.227,-7.119 l -12.0133,2.7808 z"
         style="fill:#ffffff;fill-rule:evenodd;stroke:#000000;stroke-width:1px;stroke-linecap:butt;stroke-linejoin:miter;stroke-opacity:1" />
      <path
         sodipodi:nodetypes="zsccz"
         inkscape:connector-curvature="0"
         id="path4295"
         d="m 123.30429,1352.4095 c 8.3101,-0.5196 14.1621,5.0021 13.6683,18.484 -0.2378,6.4925 -5.5619,12.8775 -11.1791,13.2925 -6.7485,0.319 -12.6444,-6.016 -13.8487,-14.7385 -1.0996,-8.9031 3.0493,-16.5184 11.3595,-17.038 z"
         style="fill:#ffffff;fill-rule:evenodd;stroke:#000000;stroke-width:1px;stroke-linecap:butt;stroke-linejoin:miter;stroke-opacity:1" />
      <path
         sodipodi:nodetypes="csccsccsscssssc"
         inkscape:connector-curvature="0"
         id="path4287"
         d="m 92.576491,1547.4933 c 4.0901,1.4158 10.191499,3.9894 15.864399,5.7692 5.673,1.7797 14.4605,10.2335 14.4605,10.2335 l -14.7942,39.0433 c 0,0 -8.564999,-26.1401 -10.455999,-28.6985 -1.891,-2.5583 -4.8943,-8.4538 -6.0067,-9.2324 -8.6694,-9.7693 -13.2255,-11.4523 -18.9654,-15.6841 -2.1141,-1.77 -4.2828,-4.3863 -4.505,-6.6184 -0.2183,-2.1931 -0.1669,-5.6174 1.446,-6.4516 1.6129,-0.8343 5.1168,0.4449 5.951,1.2235 0.8343,0.7787 1.3349,2.9478 2.7253,4.0045 1.3904,1.0567 4.7787,-2.0605 5.6539,-2.2214 1.2831,-0.236 2.3915,-0.2399 3.6151,1.5954 1.2236,1.8354 0.1859,5.2422 1.7988,5.9096 1.6129,0.6674 3.2123,1.1274 3.2123,1.1274 z"
         style="fill:#ffffff;fill-rule:evenodd;stroke:#000000;stroke-width:1px;stroke-linecap:butt;stroke-linejoin:miter;stroke-opacity:1" />
      <path
         sodipodi:nodetypes="cssssssccsccscsszzsccscssscsscc"
         inkscape:connector-curvature="0"
         id="path4291"
         d="m 189.87235,1416.0614 c -1.17982,-0.039 -8.49466,-0.039 -11.05096,3.1855 -2.5563,3.2248 -6.2538,10.2116 -6.5875,11.4908 -0.3337,1.2792 -1.1679,13.6262 -2.0578,19.2992 -0.8899,5.6729 -2.3359,13.5706 -2.2247,15.0166 0.1112,1.4461 3.0033,25.139 2.6696,31.0344 -0.3337,5.8955 -1.3348,13.3482 -2.0022,14.9055 -0.6674,1.5572 -2.4472,4.0044 -2.4472,4.0044 0,0 -0.4449,8.6763 -0.9454,9.8443 -0.5006,1.1679 -4.8493,10.1451 -4.692,12.9767 0.1573,2.8315 -13.7646,-30.5574 -13.7646,-30.5574 0,0 4.9552,-4.2473 6.843,-7.5508 1.8877,-3.3035 4.8372,-7.8262 4.8372,-8.8487 0,-1.0225 -0.2615,-27.968 0.3171,-30.8691 0.079,-1.4551 1.767,-6.1772 2.9468,-10.3459 1.1798,-4.1687 3.0675,-11.9555 3.9327,-14.9051 0.8652,-2.9495 2.5588,-7.0834 2.0266,-8.5091 -0.5322,-1.4258 -1.1095,-2.5898 -0.6376,-4.3977 0.4719,-1.8079 5.7544,-5.8359 8.6465,-9.2285 2.8921,-3.3927 6.0345,-6.0345 6.7019,-6.4238 0.66738,-0.3894 1.22355,0.3337 1.19574,0.6118 -0.0278,0.278 -4.00444,5.4783 -4.00444,6.535 l 0,2.0022 c 0,0 1.5573,-1.5573 3.55951,-3.0589 2.00222,-1.5017 3.94882,-1.7242 4.50499,-1.5573 0.55618,0.1668 0.46273,1.3345 -0.28449,1.6884 -0.74722,0.354 -0.94386,1.4551 -0.94386,1.4551 0,0 1.61242,-0.118 2.79224,0 1.17982,0.118 2.28099,0.7866 2.28099,1.5731 0,0.7866 -1.61242,0.6293 -1.61242,0.6293 z"
         style="color:#000000;clip-rule:nonzero;display:inline;overflow:visible;visibility:visible;opacity:1;isolation:auto;mix-blend-mode:normal;color-interpolation:sRGB;color-interpolation-filters:linearRGB;solid-color:#000000;solid-opacity:1;fill:#ffffff;fill-opacity:1;fill-rule:evenodd;stroke:#000000;stroke-width:0.80400002;stroke-linecap:butt;stroke-linejoin:miter;stroke-miterlimit:4;stroke-dasharray:none;stroke-dashoffset:0;stroke-opacity:1;marker:none;color-rendering:auto;image-rendering:auto;shape-rendering:auto;text-rendering:auto;enable-background:accumulate" />
      <path
         sodipodi:nodetypes="ccssccccscsccccssc"
         inkscape:connector-curvature="0"
         id="path4293"
         d="m 124.79239,1492.0835 c -8.8987,-0.2225 -28.809699,-11.6796 -28.809699,-11.6796 0,0 -2.4472,-8.8988 0.1112,-16.3515 1.2438,-3.6232 5.227999,-16.2402 3.4483,-30.5895 -1.7798,-14.3492 -2.1135,-23.4705 -2.6696,-28.476 2.2247,-4.7831 2.4471,-15.7953 2.4471,-17.5751 8.399499,3.642 8.044099,3.4296 13.348199,3.0034 2.7808,-0.3337 4.4493,-1.2236 4.4493,-1.2236 0,0 2.336,5.7842 8.2314,5.7842 5.8954,0 7.8976,-4.4494 7.8976,-4.4494 0,0 3.4483,2.8921 6.4516,3.0033 3.0034,0.1113 8.8988,-2.2247 8.8988,-2.2247 0,0 0.2225,14.1268 1.446,16.4628 1.2236,2.3359 -0.3337,21.2457 -2.4471,24.3603 -2.1135,3.1146 -5.7842,10.901 -4.8943,14.5717 0.8898,3.6708 4.211,9.3856 5.5617,15.1279 1.8383,7.8157 1.7797,22.1357 0.6674,24.3604 -1.1123,2.2247 -24.1379,5.8954 -24.1379,5.8954 z"
         style="fill:#800000;fill-rule:evenodd;stroke:#000000;stroke-width:1px;stroke-linecap:butt;stroke-linejoin:miter;stroke-opacity:1" />
      <path
         inkscape:connector-curvature="0"
         id="path4317"
         d="m 127.51769,1489.1914 c 2.3915,5.951 2.0022,4.2269 2.3915,7.0634 0.3893,2.8365 0.3893,7.3415 0.3893,7.3415 l 13.6262,6.6184 c 0,0 4.2826,0.6674 3.6152,-4.06 -0.6674,-4.7275 0.056,-10.178 0.2781,-11.624 0.2224,-1.4461 1.0011,-7.7865 0.7786,-9.5106 -0.2225,-1.7241 -10.178,-4.2269 -10.178,-4.2269 l -9.1768,0.1668 z"
         style="fill:#ffffff;fill-rule:evenodd;stroke:#000000;stroke-width:1px;stroke-linecap:butt;stroke-linejoin:miter;stroke-opacity:1" />
      <path
         sodipodi:nodetypes="cssccsccssssscsccccccccc"
         inkscape:connector-curvature="0"
         id="path4316"
         d="m 97.610391,1449.8829 c 1.8878,5.8204 4.404699,13.6072 5.269899,18.0119 0.8652,4.4046 1.6517,10.3037 1.6517,16.3601 0,6.0565 -0.3146,11.7982 1.7305,18.2479 2.045,6.4497 2.6742,7.4722 3.7754,14.3938 1.1011,6.9216 1.3371,9.9892 1.8877,11.8769 0.5506,1.8877 10.7757,-14.6298 10.7757,-14.6298 l 3.6967,-12.1128 c 0,0 -6.9216,-2.6743 -8.9666,-10.3038 -2.045,-7.6295 -2.8316,-18.2478 -3.4608,-20.8434 -0.6292,-2.5957 -2.6743,-9.5959 -5.4272,-16.1243 -2.7529,-6.5283 -3.7754,-10.2251 -6.0564,-16.5174 -2.281,-6.2924 -2.1236,-8.1015 -2.1236,-10.8544 0,-2.7529 -2.715799,-2.9721 -2.715799,-2.9721 0,0 -11.5601,-6.7811 -16.476,-9.4553 -4.9159,-2.6743 -5.2305,-2.7529 -5.8991,-1.7697 -0.6685,0.9831 0.8259,1.9663 0.8259,1.9663 0,0 0.079,-0.2753 -0.5899,0.6293 -0.6686,0.9045 1.4158,2.8315 1.4158,2.8315 0,0 -0.9046,-0.3932 -0.7473,1.1405 0.1574,1.5338 1.5338,2.045 2.9103,2.635 1.3764,0.5899 5.3878,1.573 6.4496,2.3596 1.0619,0.7865 3.6182,1.9664 5.3879,5.8598 3.0341,6.1508 5.0904,14.8137 6.6856,19.2704 z"
         style="color:#000000;clip-rule:nonzero;display:inline;overflow:visible;visibility:visible;opacity:1;isolation:auto;mix-blend-mode:normal;color-interpolation:sRGB;color-interpolation-filters:linearRGB;solid-color:#000000;solid-opacity:1;fill:#ffffff;fill-opacity:1;fill-rule:evenodd;stroke:#000000;stroke-width:0.80400002;stroke-linecap:butt;stroke-linejoin:miter;stroke-miterlimit:4;stroke-dasharray:none;stroke-dashoffset:0;stroke-opacity:1;marker:none;color-rendering:auto;image-rendering:auto;shape-rendering:auto;text-rendering:auto;enable-background:accumulate" />
      <path
         inkscape:connector-curvature="0"
         id="path4303"
         d="m 161.39939,1370.4416 c 1.1011,0.8653 1.0225,0.3933 1.1011,1.2585 0.079,0.8652 -1.0225,1.5338 -1.0225,1.5338 0,0 1.0225,-0.1966 1.2192,0.8652 0.1966,1.0618 -1.2192,1.6517 -1.2192,1.6517 0,0 1.1012,0.6293 1.0225,1.5338 -0.079,0.9045 -1.4551,1.5338 -1.4551,1.5338 0,0 1.2585,0.3146 1.0619,1.4551 -0.1967,1.1405 -1.8484,1.1798 -1.8484,1.1798"
         style="fill:none;fill-rule:evenodd;stroke:#000000;stroke-width:1px;stroke-linecap:butt;stroke-linejoin:miter;stroke-opacity:1" />
      <path
         sodipodi:nodetypes="ccscsccc"
         inkscape:connector-curvature="0"
         id="path4305"
         d="m 94.055491,1363.8779 c -2.1663,1.5846 -0.1466,2.494 -0.1466,2.494 0,0 -0.9073,0.5073 -1.0253,1.3725 -0.118,0.8652 0.7155,1.2815 0.7155,1.2815 0,0 -1.1299,0.3568 -1.1299,1.3792 0,1.0225 1.2363,1.4666 1.2363,1.4666 0,0 -0.9533,0.4057 -0.893,1.4877 -0.079,1.4158 0.3933,1.8409 0.3933,1.8409"
         style="fill:none;fill-rule:evenodd;stroke:#000000;stroke-width:1px;stroke-linecap:butt;stroke-linejoin:miter;stroke-opacity:1" />
      <path
         sodipodi:nodetypes="cccsccc"
         inkscape:connector-curvature="0"
         id="path4307"
         d="m 127.01939,1363.6463 c 0,0 0.354,-0.233 2.7136,-0.397 2.3597,-0.1639 4.0901,0.6806 4.0901,0.6806 0,0 -1.9664,-0.2304 -3.6182,-0.061 -1.6517,0.1698 -2.9102,0.6925 -2.9102,0.6925 l 0,0 z"
         style="fill:#000000;fill-rule:evenodd;stroke:none;stroke-width:1px;stroke-linecap:butt;stroke-linejoin:miter;stroke-opacity:1" />
      <path
         style="fill:#000000;fill-rule:evenodd;stroke:none;stroke-width:1px;stroke-linecap:butt;stroke-linejoin:miter;stroke-opacity:1"
         d="m 123.50439,1363.6688 c 0,0 -0.354,-0.2173 -2.7136,-0.2758 -2.3597,-0.059 -4.0901,0.8632 -4.0901,0.8632 0,0 1.9664,-0.3182 3.6182,-0.2221 1.6517,0.096 2.9102,0.5625 2.9102,0.5625 l 0,0 z"
         id="path4309"
         inkscape:connector-curvature="0"
         sodipodi:nodetypes="cccsccc" />
      <path
         inkscape:connector-curvature="0"
         id="path4311"
         d="m 139.14009,1503.2894 c 4.7979,-0.5506 8.888,-3.3035 8.888,-3.3035 0,0 -0.7866,1.4158 0.2359,2.1237 1.0226,0.7078 2.0451,0.1573 2.0451,0.1573 0,0 1.6517,4.2473 7.0789,9.3599 5.4272,5.1125 9.2286,4.0384 9.2286,4.0384 0,0 0.3337,4.8943 -0.5562,8.3426 -0.8899,3.4483 -5.4505,10.901 -5.0055,17.0189 0.4449,6.1179 1.7797,9.4549 3.4482,15.1279 1.6685,5.6729 -36.2624,15.0166 -36.2624,15.0166 l -20.6896,-7.8976 c 0,0 2.4471,-5.8955 3.7819,-10.2336 1.3349,-4.3382 3.1146,-6.0067 3.1146,-8.4538 0,-2.4472 -1.3348,-10.6785 -2.4471,-13.2369 -1.1124,-2.5584 -1.2236,-6.1179 -1.2236,-6.1179 0,0 5.0055,-3.3371 8.2313,-11.1235 3.2258,-7.7864 4.8943,-14.3492 4.8943,-14.3492 0,0 1.3551,0.8564 3.2428,1.3283 1.8877,0.472 1.9663,0.6293 1.9663,0.6293 l 0.7866,-1.8091 c 0,0 2.5563,3.2249 9.2419,3.3822 z"
         style="fill:#800000;fill-rule:evenodd;stroke:#000000;stroke-width:1px;stroke-linecap:butt;stroke-linejoin:miter;stroke-opacity:1" />
      <path
         inkscape:connector-curvature="0"
         id="path4313"
         d="m 124.83329,1352.3831 c -0.4992,-0.015 -1.0099,-0.01 -1.5293,0.027 -8.3102,0.5197 -12.459,8.1341 -11.3594,17.0372 0.0413,0.299 0.1002,0.5875 0.1524,0.8808 l 0.5156,0.6758 c 1.7242,-1.0011 1.8914,-3.0035 1.7246,-4.7832 -0.1669,-1.7798 0.2223,-5.7286 1.0566,-7.0078 0.8343,-1.2792 3.669,-3.002 5.0039,-3.002 4.348,0.194 5.866,0.2128 8.6211,0.166 2.2247,0 3.2272,1.5018 4.0059,2.4473 0.7786,0.9455 1.556,2.8916 1.9453,4.0039 0.3893,1.1124 0.1109,2.1701 0.7227,3.5606 0.4284,0.9736 0.9792,1.4919 1.2793,1.7265 -0.3465,-10.684 -5.2257,-15.5221 -12.1387,-15.7324 z"
         style="fill:#000000;fill-rule:evenodd;stroke:#000000;stroke-width:1px;stroke-linecap:butt;stroke-linejoin:miter;stroke-opacity:1" />
      <path
         inkscape:connector-curvature="0"
         id="path4330"
         d="m 117.45089,1367.5287 c 0.6953,-0.2781 1.6964,-1.1402 2.9478,-1.1958 1.2513,-0.056 1.8075,0.139 2.2525,0.2225 0.4449,0.083 -0.056,0.6674 -0.7787,0.8342 -0.723,0.1669 -2.1134,0.3337 -2.7809,0.3894 -0.6674,0.056 -1.6407,-0.2503 -1.6407,-0.2503 z"
         style="fill:#000000;fill-rule:evenodd;stroke:none;stroke-width:1px;stroke-linecap:butt;stroke-linejoin:miter;stroke-opacity:1" />
      <path
         style="fill:#000000;fill-rule:evenodd;stroke:none;stroke-width:1px;stroke-linecap:butt;stroke-linejoin:miter;stroke-opacity:1"
         d="m 133.14989,1366.9181 c -0.6953,-0.2255 -1.6964,-1.0119 -2.9478,-0.9729 -1.2513,0.039 -1.8075,0.2757 -2.2525,0.3928 -0.4449,0.117 0.056,0.6632 0.7787,0.7754 0.723,0.1122 2.1134,0.1739 2.7809,0.1791 0.6674,0 1.6407,-0.3744 1.6407,-0.3744 z"
         id="path4332"
         inkscape:connector-curvature="0" />
      <path
         sodipodi:nodetypes="csssssscsssscssssscssssssssccc"
         inkscape:connector-curvature="0"
         id="path4159"
         d="m 117.36779,1558.1073 c -3.6707,1.7798 -10.3448,3.337 -13.0144,10.7898 -2.6696,7.4527 -5.450499,15.1278 -7.786399,19.7997 -2.3359,4.6718 -3.8932,14.238 -4.8943,15.7953 -1.0011,1.5573 -5.8955,5.0056 -13.7931,15.1279 -7.8977,10.1223 -7.3415,10.5673 -10.4561,12.4582 -3.1145,1.891 -5.247,3.5476 -8.7078,4.8061 -3.4608,1.2585 -5.0852,1.9792 -5.9195,2.0905 -0.8342,0.1112 -1.3348,1.5016 0.2225,1.5016 1.5573,0 6.0066,-0.3337 6.8409,-0.3337 0.8343,0 1.3904,0.5006 -1.3348,1.168 -2.7253,0.6674 -2.9477,2.8365 -0.5562,2.1135 2.3916,-0.7231 4.6719,-1.3349 4.6719,-1.3349 0,0 -0.7787,0.5006 -2.1691,1.6686 -1.3904,1.1679 1.2792,2.169 2.0022,1.6129 0.723,-0.5562 3.8932,-2.336 4.9499,-3.1702 1.0568,-0.8343 0.7231,-0.8899 0.7231,1.0567 0,1.9466 3.1145,3.8932 2.8921,2.6696 -0.2225,-1.2235 -0.056,-3.1145 0.3893,-4.0044 0.4449,-0.8899 1.5017,-1.2236 2.6696,-1.7241 1.168,-0.5006 0.8899,-0.3337 2.5584,1.6685 1.6685,2.0022 4.5606,2.5028 3.782,0 -0.7787,-2.5028 -2.8921,-6.0067 -2.3359,-8.1201 0.5561,-2.1135 9.0989,-11.3687 13.9755,-15.1441 4.8766,-3.7754 7.4206,-4.5676 8.443099,-8.5789 1.0225,-4.0114 4.7192,-11.3263 7.0789,-16.1243 2.3596,-4.7979 3.6181,-10.8543 4.6406,-12.4274 1.0225,-1.5731 3.5395,-3.8541 4.1687,-4.09 0.6292,-0.236 8.9666,-2.6743 8.9666,-2.6743 z"
         style="color:#000000;clip-rule:nonzero;display:inline;overflow:visible;visibility:visible;opacity:1;isolation:auto;mix-blend-mode:normal;color-interpolation:sRGB;color-interpolation-filters:linearRGB;solid-color:#000000;solid-opacity:1;fill:#ffffff;fill-opacity:1;fill-rule:evenodd;stroke:#000000;stroke-width:0.80400002;stroke-linecap:butt;stroke-linejoin:miter;stroke-miterlimit:4;stroke-dasharray:none;stroke-dashoffset:0;stroke-opacity:1;marker:none;color-rendering:auto;image-rendering:auto;shape-rendering:auto;text-rendering:auto;enable-background:accumulate" />
      <path
         style="color:#000000;clip-rule:nonzero;display:inline;overflow:visible;visibility:visible;opacity:1;isolation:auto;mix-blend-mode:normal;color-interpolation:sRGB;color-interpolation-filters:linearRGB;solid-color:#000000;solid-opacity:1;fill:#ffffff;fill-opacity:1;fill-rule:evenodd;stroke:#000000;stroke-width:0.80400002;stroke-linecap:butt;stroke-linejoin:miter;stroke-miterlimit:4;stroke-dasharray:none;stroke-dashoffset:0;stroke-opacity:1;marker:none;color-rendering:auto;image-rendering:auto;shape-rendering:auto;text-rendering:auto;enable-background:accumulate"
         d="m 159.84829,1558.1073 c 3.6708,1.7798 10.3448,3.337 13.0145,10.7898 2.6696,7.4527 5.4504,15.1278 7.7864,19.7997 2.3359,4.6718 3.89318,14.238 4.89429,15.7953 1.00111,1.5573 6.02702,4.9042 13.79307,15.1279 4.39376,5.7842 5.68795,9.1754 7.73408,11.7813 2.11313,2.6912 4.24755,5.3543 7.70835,6.6128 3.46081,1.2585 5.97512,1.4787 6.80938,1.5899 0.83426,0.1113 1.33482,1.5017 -0.22247,1.5017 -1.55728,0 -6.00666,-0.3337 -6.84092,-0.3337 -0.83426,0 -2.44716,0.8899 0.27809,1.5573 2.72524,0.6674 2.94771,2.8364 0.55617,2.1134 -2.39154,-0.723 -5.33925,-1.6685 -5.33925,-1.6685 0,0 0.77864,0.5006 2.16907,1.6685 1.39043,1.168 -1.27919,2.1691 -2.00222,1.6129 -0.72302,-0.5561 -2.72525,-2.5584 -3.78197,-3.3926 -1.05673,-0.8343 -1.05674,-1.2236 -1.05674,0.723 0,1.9466 -2.22468,4.3938 -2.00221,3.1702 0.22247,-1.2236 -1.27921,-3.9488 -1.72413,-4.8387 -0.44494,-0.8899 -3.00334,-1.4461 -4.1713,-1.9466 -1.16796,-0.5006 -1.11235,0.056 -2.78087,2.0578 -1.66851,2.0022 -4.56061,2.5028 -3.78197,0 0.77864,-2.5028 3.27679,-6.5977 2.72061,-8.7112 -0.55617,-2.1134 -3.70896,-10.8696 -7.9978,-15.3014 -4.71926,-4.8765 -8.36436,-7.3991 -9.38686,-11.4105 -1.0226,-4.0113 -4.2474,-7.7081 -6.607,-12.5061 -2.3597,-4.7979 -3.6181,-10.8543 -4.6407,-12.4274 -1.0225,-1.5731 -3.5394,-3.8541 -4.1687,-4.09 -0.6292,-0.236 -8.9666,-2.6743 -8.9666,-2.6743 z"
         id="path4175"
         inkscape:connector-curvature="0"
         sodipodi:nodetypes="csssssscsssscssssscssssssssccc" />
      <rect
         ry="20.689615"
         rx="27.6021"
         y="1551.3715"
         x="129.35306"
         height="20.689615"
         width="19.132332"
         id="rect4400"
         style="color:#000000;clip-rule:nonzero;display:inline;overflow:visible;visibility:visible;opacity:1;isolation:auto;mix-blend-mode:normal;color-interpolation:sRGB;color-interpolation-filters:linearRGB;solid-color:#000000;solid-opacity:1;fill:#ffffff;fill-opacity:1;fill-rule:evenodd;stroke:none;stroke-width:3.54330707;stroke-linecap:butt;stroke-linejoin:miter;stroke-miterlimit:4;stroke-dasharray:none;stroke-dashoffset:0;stroke-opacity:1;marker:none;color-rendering:auto;image-rendering:auto;shape-rendering:auto;text-rendering:auto;enable-background:accumulate" />
      <path
         style="fill:#800000;fill-rule:evenodd;stroke:#000000;stroke-width:1px;stroke-linecap:butt;stroke-linejoin:miter;stroke-opacity:1"
         d="m 111.33289,1560.4371 c 1.3427,0.8112 2.7647,2.3528 4.5607,7.6195 1.796,5.2668 0.3008,11.3491 -3.7819,16.1291 0.6692,9.9887 -0.096,10.1598 -4.227,17.3525 15.1385,9.9502 44.0252,10.7392 56.952,-1.5573 -2.0625,-6.8122 -5.064,-13.1235 -3.5595,-21.1345 -1.5429,-4.0263 -3.4039,-11.6524 3.5842,-18.8424 -5.6358,-2.1851 -10.4065,-4.9264 -16.0423,-5.6292 0,0 -5.5618,12.6807 -9.7888,12.6807 -4.2268,0 -9.2324,-13.6818 -9.2324,-13.6818 -6.8507,1.5776 -12.7994,4.0045 -18.465,7.0634 z"
         id="path4286"
         inkscape:connector-curvature="0"
         sodipodi:nodetypes="czccccccscc" />
      <circle
         style="color:#000000;clip-rule:nonzero;display:inline;overflow:visible;visibility:visible;opacity:1;isolation:auto;mix-blend-mode:normal;color-interpolation:sRGB;color-interpolation-filters:linearRGB;solid-color:#000000;solid-opacity:1;fill:#008000;fill-opacity:1;fill-rule:evenodd;stroke:#000000;stroke-width:0.80400002;stroke-linecap:butt;stroke-linejoin:miter;stroke-miterlimit:4;stroke-dasharray:none;stroke-dashoffset:0;stroke-opacity:1;marker:none;color-rendering:auto;image-rendering:auto;shape-rendering:auto;text-rendering:auto;enable-background:accumulate"
         id="circle4140"
         cx="137.67581"
         cy="1609.9874"
         r="14.969423" />
      <path
         sodipodi:nodetypes="sccscscsscsscscccs"
         inkscape:connector-curvature="0"
         id="path4315"
         d="m 144.98149,1487.4673 c 1.2792,1.2235 1.8353,1.8353 2.6696,1.7797 0.8343,-0.056 1.0011,-2.3915 1.0011,-2.3915 0,0 0.5006,0.3337 1.3904,0.2224 0.8899,-0.1112 1.2236,-1.6685 1.0568,-2.4471 -0.1669,-0.7787 0.2781,-2.9477 -0.6674,-3.2258 -0.9455,-0.2781 -1.5387,-0.2962 -1.5387,-0.2962 0,0 0.118,-3.9721 -0.7472,-6.4497 -0.8652,-2.4776 -1.5338,-5.2306 -4.5227,-7.1576 -2.9889,-1.927 -5.7024,-2.4383 -7.9441,-2.3596 -2.2417,0.079 -8.9403,2.9706 -10.2751,7.3087 -1.3348,4.3382 -1.0011,7.1746 -1.0011,8.5094 0,1.3349 0.2781,2.1691 0.2781,2.1691 0,0 -2.1691,0.3893 -1.5573,3.8932 0.6118,3.5039 1.3904,4.7831 2.1691,5.1724 0.7786,0.3894 3.1702,-0.6674 3.1702,-0.6674 0,0 5.2558,-6.4516 10.8453,-6.8409 3.059,-0.1112 4.3938,1.5573 5.673,2.7809 z"
         style="fill:#ffffff;fill-rule:evenodd;stroke:#000000;stroke-width:1px;stroke-linecap:butt;stroke-linejoin:miter;stroke-opacity:1" />
      <path
         sodipodi:nodetypes="cc"
         inkscape:connector-curvature="0"
         id="path4319"
         d="m 139.23619,1469.2721 c 1.9339,-0.1317 4.3641,0.019 6.0879,0.9227"
         style="fill:none;fill-rule:evenodd;stroke:#000000;stroke-width:1px;stroke-linecap:butt;stroke-linejoin:miter;stroke-opacity:1" />
      <path
         sodipodi:nodetypes="cc"
         inkscape:connector-curvature="0"
         id="path4321"
         d="m 132.25779,1470.4511 c -2.9479,0.6763 -4.2854,2.0649 -5.7112,4.585"
         style="fill:none;fill-rule:evenodd;stroke:#000000;stroke-width:1px;stroke-linecap:butt;stroke-linejoin:miter;stroke-opacity:1" />
      <path
         sodipodi:nodetypes="zzzzzzz"
         inkscape:connector-curvature="0"
         id="path4323"
         d="m 139.70419,1520.5934 c 5.4286,-0.079 12.3488,2.281 12.5847,9.0453 0.2359,6.7643 0.043,9.6795 -0.3146,14.7871 -0.3581,5.1075 -4.9201,18.1543 -12.1915,18.3265 -7.2714,0.1722 -11.2194,-13.2678 -11.4836,-18.2479 -0.2642,-4.9801 -0.8651,-8.1801 -0.6292,-14.2365 0.2359,-6.0564 6.6056,-9.5958 12.0342,-9.6745 z"
         style="fill:#ffffff;fill-rule:evenodd;stroke:#000000;stroke-width:1px;stroke-linecap:butt;stroke-linejoin:miter;stroke-opacity:1" />
      <path
         inkscape:connector-curvature="0"
         id="path4325"
         d="m 139.70449,1520.594 c -5.4286,0.079 -11.7992,3.6175 -12.0351,9.6739 -0.189,4.8531 0.1537,7.906 0.4355,11.4765 1.1625,-2.9362 1.859,-5.1295 2.3125,-6.6797 0.9972,-3.4088 2.3784,-3.88 4.125,-3.2246 2.6072,0.9785 7.6921,1.218 10.9043,0.1582 3.2122,-1.0598 3.3806,1.2583 4.0098,3.2246 0.6293,1.9664 1.3371,5.0344 2.0449,6.6075 0.1067,0.237 0.3239,0.4551 0.6016,0.6562 0.2647,-3.9803 0.3889,-7.0168 0.1855,-12.8476 -0.2359,-6.7643 -7.1554,-9.1237 -12.584,-9.045 z"
         style="fill:#000000;fill-rule:evenodd;stroke:#000000;stroke-width:1px;stroke-linecap:butt;stroke-linejoin:miter;stroke-opacity:1" />
      <path
         inkscape:connector-curvature="0"
         id="path4324"
         d="m 137.25179,1543.9744 c -3.6152,-0.5006 -5.1168,-0.2225 -5.1168,-0.2225"
         style="fill:none;fill-rule:evenodd;stroke:#000000;stroke-width:1px;stroke-linecap:butt;stroke-linejoin:miter;stroke-opacity:1" />
      <path
         inkscape:connector-curvature="0"
         id="path4326"
         d="m 142.50389,1543.7491 c 3.1043,-0.3123 4.9303,-0.1572 4.9303,-0.1572"
         style="fill:none;fill-rule:evenodd;stroke:#000000;stroke-width:1.03871644px;stroke-linecap:butt;stroke-linejoin:miter;stroke-opacity:1" />
      <ellipse
         ry="66.285522"
         rx="69.343727"
         style="color:#000000;clip-rule:nonzero;display:inline;overflow:visible;visibility:visible;opacity:1;isolation:auto;mix-blend-mode:normal;color-interpolation:sRGB;color-interpolation-filters:linearRGB;solid-color:#000000;solid-opacity:1;fill:none;fill-opacity:1;fill-rule:evenodd;stroke:#000000;stroke-width:3.54330707;stroke-linecap:butt;stroke-linejoin:miter;stroke-miterlimit:4;stroke-dasharray:none;stroke-dashoffset:0;stroke-opacity:1;marker:none;color-rendering:auto;image-rendering:auto;shape-rendering:auto;text-rendering:auto;enable-background:accumulate"
         id="circle4142"
         cx="131.04861"
         cy="1363.9562" />
      <ellipse
         cy="1364.9"
         cx="136.7117"
         id="ellipse4248"
         style="color:#000000;clip-rule:nonzero;display:inline;overflow:visible;visibility:visible;opacity:1;isolation:auto;mix-blend-mode:normal;color-interpolation:sRGB;color-interpolation-filters:linearRGB;solid-color:#000000;solid-opacity:1;fill:none;fill-opacity:1;fill-rule:evenodd;stroke:#000000;stroke-width:3.54330707;stroke-linecap:butt;stroke-linejoin:miter;stroke-miterlimit:4;stroke-dasharray:none;stroke-dashoffset:0;stroke-opacity:1;marker:none;color-rendering:auto;image-rendering:auto;shape-rendering:auto;text-rendering:auto;enable-background:accumulate"
         rx="33.901402"
         ry="71.743622" />
      <ellipse
         transform="scale(-1,1)"
         ry="71.743622"
         rx="33.901402"
         style="color:#000000;clip-rule:nonzero;display:inline;overflow:visible;visibility:visible;opacity:1;isolation:auto;mix-blend-mode:normal;color-interpolation:sRGB;color-interpolation-filters:linearRGB;solid-color:#000000;solid-opacity:1;fill:none;fill-opacity:1;fill-rule:evenodd;stroke:#000000;stroke-width:3.54330707;stroke-linecap:butt;stroke-linejoin:miter;stroke-miterlimit:4;stroke-dasharray:none;stroke-dashoffset:0;stroke-opacity:1;marker:none;color-rendering:auto;image-rendering:auto;shape-rendering:auto;text-rendering:auto;enable-background:accumulate"
         id="ellipse4252"
         cx="-126.01468"
         cy="1364.9" />
      <path
         sodipodi:nodetypes="cssssssssscccsscc"
         style="color:#000000;clip-rule:nonzero;display:inline;overflow:visible;visibility:visible;opacity:1;isolation:auto;mix-blend-mode:normal;color-interpolation:sRGB;color-interpolation-filters:linearRGB;solid-color:#000000;solid-opacity:1;fill:#ffffff;fill-opacity:1;fill-rule:evenodd;stroke:#000000;stroke-width:0.80400002;stroke-linecap:butt;stroke-linejoin:miter;stroke-miterlimit:4;stroke-dasharray:none;stroke-dashoffset:0;stroke-opacity:1;marker:none;color-rendering:auto;image-rendering:auto;shape-rendering:auto;text-rendering:auto;enable-background:accumulate"
         d="m 238.65678,1510.1113 c 0,0 -1.32059,21.9628 0.85961,36.2736 2.08319,13.6739 8.53478,28.3736 10.97307,31.5198 2.43829,3.1462 4.87659,5.0339 14.55111,3.9327 9.67453,-1.1011 31.46187,-6.2137 41.92294,-6.6856 10.46107,-0.4719 25.08687,-5.3649 27.08909,-6.2547 2.00223,-0.8899 5.59307,-4.568 6.30096,-6.1411 0.7079,-1.5731 -1.79705,-3.3751 -8.80932,-2.4383 -7.33396,0.9797 -10.81617,-0.6609 -13.25446,-2.6273 -2.4383,-1.9663 -6.84296,-1.809 -8.02278,1.2585 -1.17982,3.0676 -0.23596,4.326 -2.43829,4.326 -11.07519,1.1552 -25.84442,-4.275 -32.73152,-3.9337 -4.48331,0.3933 -9.07228,2.4192 -9.07228,2.4192 0,0 2.00454,-8.3173 3.97091,-17.9132 1.96636,-9.5958 6.13506,-24.6975 6.52833,-27.4505 0.39328,-2.7529 -6.2089,-19.3571 -6.2089,-19.3571 z"
         id="path4258"
         inkscape:connector-curvature="0" />
      <path
         inkscape:connector-curvature="0"
         id="path4256"
         d="m 251.73909,1513.836 c 0,0 -1.22358,22.9143 -0.55617,37.3748 0.6674,14.4605 0.98393,26.3286 3.42222,29.4748 2.43829,3.1461 4.87659,5.0339 14.55111,3.9327 9.67453,-1.1012 31.46187,-6.2137 41.92294,-6.6857 10.46107,-0.4719 25.75428,-2.2502 27.7565,-3.1401 2.00223,-0.8899 5.59307,-4.568 6.30096,-6.1411 0.7079,-1.5731 -1.80905,-1.4158 -8.80932,-2.4383 -7.00026,-1.0225 -11.48358,-3.7754 -13.92187,-5.7418 -2.4383,-1.9664 -6.84296,-1.8091 -8.02278,1.2585 -1.17982,3.0675 -0.23596,4.326 -2.43829,4.326 -2.20233,0 -14.86573,-0.236 -17.77596,-0.1573 -2.91022,0.079 -9.3599,-0.9439 -13.84322,-0.5506 -4.48331,0.3933 -9.51721,2.7529 -9.51721,2.7529 0,0 1.33713,-11.8768 3.3035,-21.4727 1.96636,-9.5959 6.13506,-24.6976 6.52833,-27.4505 0.39328,-2.7529 -6.2089,-19.3572 -6.2089,-19.3572 z"
         style="color:#000000;clip-rule:nonzero;display:inline;overflow:visible;visibility:visible;opacity:1;isolation:auto;mix-blend-mode:normal;color-interpolation:sRGB;color-interpolation-filters:linearRGB;solid-color:#000000;solid-opacity:1;fill:#ffffff;fill-opacity:1;fill-rule:evenodd;stroke:#000000;stroke-width:0.80400002;stroke-linecap:butt;stroke-linejoin:miter;stroke-miterlimit:4;stroke-dasharray:none;stroke-dashoffset:0;stroke-opacity:1;marker:none;color-rendering:auto;image-rendering:auto;shape-rendering:auto;text-rendering:auto;enable-background:accumulate" />
      <path
         sodipodi:nodetypes="csssscsscsssccc"
         inkscape:connector-curvature="0"
         id="path4260"
         d="m 261.19402,1429.1865 c 5.11679,-0.4449 7.34148,-1.5572 7.45271,-3.337 0.11124,-1.7798 0,-4.2269 -3.33703,-6.0067 -3.33704,-1.7797 -5.06117,-3.7819 -4.00444,-5.5617 1.05672,-1.7797 0.94549,-3.5595 1.77975,-4.5606 0.83426,-1.0011 2.33592,-2.8921 2.33592,-2.8921 0,0 -1.33481,-2.2247 -0.50055,-2.7252 0.83426,-0.5006 5.39487,-0.8343 6.67407,-1.6686 1.27919,-0.8342 3.14628,-5.1717 7.00036,-6.3515 7.16908,-2.1307 15.09434,-1.8987 19.66367,6.2923 3.38708,6.0718 4.66993,17.4456 -3.74612,22.3221 -8.41605,4.8766 -10.33307,4.9711 -11.51289,6.0723 -1.17982,1.1011 -3.4608,7.8654 -3.4608,7.8654 l -15.49497,5.2699 z"
         style="color:#000000;clip-rule:nonzero;display:inline;overflow:visible;visibility:visible;opacity:1;isolation:auto;mix-blend-mode:normal;color-interpolation:sRGB;color-interpolation-filters:linearRGB;solid-color:#000000;solid-opacity:1;fill:#ffffff;fill-opacity:1;fill-rule:evenodd;stroke:#000000;stroke-width:0.80400002;stroke-linecap:butt;stroke-linejoin:miter;stroke-miterlimit:4;stroke-dasharray:none;stroke-dashoffset:0;stroke-opacity:1;marker:none;color-rendering:auto;image-rendering:auto;shape-rendering:auto;text-rendering:auto;enable-background:accumulate" />
      <path
         inkscape:connector-curvature="0"
         id="path4262"
         d="m 302.02273,1402.1858 c -0.99047,0.022 -2.18879,0.2337 -3.57617,0.5586 1.77671,3.3734 2.90262,8.2022 2.19531,12.6758 5.53017,-1.2399 6.96577,-3.7513 6.04688,-8.7031 -0.6257,-3.3718 -1.96826,-4.5921 -4.66602,-4.5313 z"
         style="color:#000000;clip-rule:nonzero;display:inline;overflow:visible;visibility:visible;opacity:1;isolation:auto;mix-blend-mode:normal;color-interpolation:sRGB;color-interpolation-filters:linearRGB;solid-color:#000000;solid-opacity:1;fill:#000000;fill-opacity:1;fill-rule:evenodd;stroke:#000000;stroke-width:0.80400002;stroke-linecap:butt;stroke-linejoin:miter;stroke-miterlimit:4;stroke-dasharray:none;stroke-dashoffset:0;stroke-opacity:1;marker:none;color-rendering:auto;image-rendering:auto;shape-rendering:auto;text-rendering:auto;enable-background:accumulate" />
      <path
         inkscape:connector-curvature="0"
         id="path4264"
         d="m 274.85872,1402.808 -0.0787,-1.5731 c 0,0 1.25848,-0.5112 1.84839,0.3147 0.58991,0.8258 1.96636,4.2473 1.96636,4.2473 0,0 -1.21915,-2.3596 -2.35964,-2.9889 -1.14049,-0.6292 -1.37645,0 -1.37645,0 z"
         style="color:#000000;clip-rule:nonzero;display:inline;overflow:visible;visibility:visible;opacity:1;isolation:auto;mix-blend-mode:normal;color-interpolation:sRGB;color-interpolation-filters:linearRGB;solid-color:#000000;solid-opacity:1;fill:#000000;fill-opacity:1;fill-rule:evenodd;stroke:none;stroke-width:0.80400002;stroke-linecap:butt;stroke-linejoin:miter;stroke-miterlimit:4;stroke-dasharray:none;stroke-dashoffset:0;stroke-opacity:1;marker:none;color-rendering:auto;image-rendering:auto;shape-rendering:auto;text-rendering:auto;enable-background:accumulate" />
      <path
         inkscape:connector-curvature="0"
         id="path4270"
         d="m 289.11388,1439.6426 c 2.66963,1.891 8.23135,4.7831 10.67851,5.7842 2.44716,1.0011 9.89987,9.6774 14.34925,11.4571 4.44938,1.7798 7.79189,4.5612 10.93808,5.5837 3.14618,1.0225 6.37102,1.8877 10.2251,3.0675 3.85408,1.1798 13.43074,8.4789 18.21383,10.8149 4.78308,2.3359 10.41647,3.107 13.32669,9.0848 2.91022,5.9777 4.08151,9.825 5.3607,10.6593 1.2792,0.8342 5.22802,4.7274 5.83981,5.228 0.61179,0.5006 0.38932,2.9477 -2.50277,1.3904 -2.8921,-1.5573 -6.4516,-5.7842 -6.4516,-5.7842 0,0 -0.38932,2.1135 0,3.7264 0.38932,1.6129 3.50388,6.5072 3.50388,6.5072 0,0 0.16685,3.1702 -1.11234,1.5017 -1.2792,-1.6685 -4.78309,-5.7286 -5.06117,-8.4538 -0.27809,-2.7253 -0.55617,-3.1702 -0.55617,-3.1702 l 5.72857,12.2358 c 0,0 -0.61179,2.7252 -2.39154,-0.5562 -1.77975,-3.2814 -6.00666,-7.3415 -7.11901,-10.0111 -1.11234,-2.6696 -3.5595,-5.8398 -3.50388,-7.564 0.0556,-1.7241 0,-4.1156 -1.39043,-4.8387 -1.39044,-0.723 -19.21031,-6.2978 -24.32286,-8.5788 -5.11256,-2.281 -13.60726,-7.1576 -15.1017,-7.5508 -1.49444,-0.3933 -7.78681,-2.4383 -12.74205,-4.7193 -4.95525,-2.281 -8.25874,-5.8991 -11.32627,-7.3936 -3.06754,-1.4944 -14.4825,-1.8464 -14.4825,-1.8464 z"
         style="color:#000000;clip-rule:nonzero;display:inline;overflow:visible;visibility:visible;opacity:1;isolation:auto;mix-blend-mode:normal;color-interpolation:sRGB;color-interpolation-filters:linearRGB;solid-color:#000000;solid-opacity:1;fill:#ffffff;fill-opacity:1;fill-rule:evenodd;stroke:#000000;stroke-width:0.80400002;stroke-linecap:butt;stroke-linejoin:miter;stroke-miterlimit:4;stroke-dasharray:none;stroke-dashoffset:0;stroke-opacity:1;marker:none;color-rendering:auto;image-rendering:auto;shape-rendering:auto;text-rendering:auto;enable-background:accumulate" />
      <path
         inkscape:connector-curvature="0"
         id="path4266"
         d="m 272.971,1405.4036 0.78655,-1.4157 c 0,0 0.90453,-0.236 1.45511,0.5112 0.55058,0.7472 1.49444,3.5001 1.49444,3.5001 0,0 -1.10117,0 -1.65175,-0.5112 -0.55058,-0.5113 -0.78654,-1.5338 -1.06184,-1.6911 -0.27529,-0.1573 -1.02251,-0.3933 -1.02251,-0.3933 z"
         style="color:#000000;clip-rule:nonzero;display:inline;overflow:visible;visibility:visible;opacity:1;isolation:auto;mix-blend-mode:normal;color-interpolation:sRGB;color-interpolation-filters:linearRGB;solid-color:#000000;solid-opacity:1;fill:#000000;fill-opacity:1;fill-rule:evenodd;stroke:none;stroke-width:0.80400002;stroke-linecap:butt;stroke-linejoin:miter;stroke-miterlimit:4;stroke-dasharray:none;stroke-dashoffset:0;stroke-opacity:1;marker:none;color-rendering:auto;image-rendering:auto;shape-rendering:auto;text-rendering:auto;enable-background:accumulate" />
      <path
         inkscape:connector-curvature="0"
         id="path4272"
         d="m 250.12182,1445.6355 c 0,0 -2.83156,-8.3374 -5.1912,-12.7421 -2.35964,-4.4046 -7.15758,-4.5619 -12.6634,-10.5397 -5.50583,-5.9777 -11.24762,-12.978 -13.60726,-14.0005 -2.35964,-1.0225 -2.75291,-1.4944 -3.85408,-2.2023 -1.10116,-0.7079 -4.61287,-6.219 -7.33812,-10.3903 -2.72524,-4.1713 -4.22691,-7.9533 -4.8387,-9.5106 -0.61179,-1.5573 -1.05672,-1.7241 -1.05672,-1.7241 0,0 -2.83648,-1.2236 -5.7842,-1.3904 -2.94771,-0.1669 -3.94882,-2.2247 -1.50166,-2.2804 2.44716,-0.056 -2.44716,-2.2246 0.22247,-2.2246 2.66962,0 0.88987,-2.6697 2.11345,-2.6697 1.22358,0 -0.88987,-2.4471 0.27809,-2.4471 1.16796,0 7.00777,-0.445 7.39709,0.1112 0.38932,0.5562 1.16796,4.8387 1.77975,5.673 0.61179,0.8342 7.86335,7.6612 11.00954,11.2793 3.14618,3.6182 8.10143,10.6184 9.59586,12.4275 1.49444,1.809 9.98915,8.888 13.3713,10.697 3.38215,1.8091 8.18008,3.6968 9.59587,4.8766 1.41578,1.1798 5.1912,5.3485 6.52833,6.4497 1.33713,1.1011 3.84783,1.2664 4.73771,1.8782 0.88987,0.6118 2.00222,1.2236 4.67184,1.2236 2.66963,0 1.05152,8.5391 1.05152,8.5391 l -16.04555,9.1239 z"
         style="color:#000000;clip-rule:nonzero;display:inline;overflow:visible;visibility:visible;opacity:1;isolation:auto;mix-blend-mode:normal;color-interpolation:sRGB;color-interpolation-filters:linearRGB;solid-color:#000000;solid-opacity:1;fill:#ffffff;fill-opacity:1;fill-rule:evenodd;stroke:#000000;stroke-width:0.80400002;stroke-linecap:butt;stroke-linejoin:miter;stroke-miterlimit:4;stroke-dasharray:none;stroke-dashoffset:0;stroke-opacity:1;marker:none;color-rendering:auto;image-rendering:auto;shape-rendering:auto;text-rendering:auto;enable-background:accumulate" />
      <path
         inkscape:connector-curvature="0"
         id="path4268"
         d="m 285.4114,1394.9495 c -0.28956,0 -0.5801,0.026 -0.87109,0.043 0.57081,1.3312 1.07457,2.6753 1.23633,3.6054 0.44494,2.5584 1.44531,6.2289 1.44531,6.6739 0,0.4449 -4.22648,4.8939 -4.11524,6.4511 0.11123,1.5573 0.11133,4.004 0.11133,4.004 0,0 3.89334,0.4448 4.78321,2.2246 0.88988,1.7797 -1.11275,5.0057 -5.11719,7.2304 -4.00444,2.2247 -3.33594,5.1172 -3.33594,5.1172 l 2.31445,2.3828 c 0.41474,-0.8845 0.81657,-1.6133 1.13672,-1.9121 1.17982,-1.1011 3.09762,-1.1957 11.51368,-6.0722 8.41604,-4.8766 7.13317,-16.2506 3.74609,-22.3223 -3.14142,-5.6314 -7.87008,-7.4997 -12.84766,-7.4258 z"
         style="color:#000000;clip-rule:nonzero;display:inline;overflow:visible;visibility:visible;opacity:1;isolation:auto;mix-blend-mode:normal;color-interpolation:sRGB;color-interpolation-filters:linearRGB;solid-color:#000000;solid-opacity:1;fill:#000000;fill-opacity:1;fill-rule:evenodd;stroke:#000000;stroke-width:0.80400002;stroke-linecap:butt;stroke-linejoin:miter;stroke-miterlimit:4;stroke-dasharray:none;stroke-dashoffset:0;stroke-opacity:1;marker:none;color-rendering:auto;image-rendering:auto;shape-rendering:auto;text-rendering:auto;enable-background:accumulate" />
      <path
         sodipodi:nodetypes="cscssssssscsssscccc"
         inkscape:connector-curvature="0"
         id="path4288"
         d="m 256.37486,1424.5954 c -3.77542,5.8204 -3.26416,6.9609 -4.7586,9.0059 -1.49444,2.0451 -4.79793,3.2249 -4.87659,4.8766 -0.0787,1.6518 -1.65174,10.7757 -3.06753,14.8658 -1.41578,4.09 -1.38798,7.9896 -2.7228,18.6681 -1.33481,10.6785 -2.33592,16.2402 -4.11567,23.8042 -1.77975,7.5639 -2.55839,15.0166 -2.55839,16.4627 0,1.446 3.2258,11.4572 5.45049,13.5706 2.22469,2.1135 13.5706,5.7842 18.68739,3.5595 5.11679,-2.2247 11.79086,-9.01 14.68295,-9.01 2.8921,0 3.33704,4.0045 5.00555,5.5617 2.11346,2.6141 5.06117,-5.5061 2.94772,-11.2903 -2.11346,-5.7842 -8.26217,-16.9364 -7.78642,-22.4693 0.63303,-7.3621 5.50611,-20.634 10.51166,-26.5295 5.00556,-5.8954 7.00778,-7.5639 7.67518,-7.7864 0.66741,-0.2224 0.77864,-17.3525 0.77864,-17.3525 0,0 -9.56616,-4.1713 -10.90097,-6.2848 -5.95568,2.7617 -12.56074,2.195 -14.84981,-6.0623 -3.47055,-0.9762 -6.86736,-1.9839 -10.1028,-3.59 z"
         style="color:#000000;clip-rule:nonzero;display:inline;overflow:visible;visibility:visible;opacity:1;isolation:auto;mix-blend-mode:normal;color-interpolation:sRGB;color-interpolation-filters:linearRGB;solid-color:#000000;solid-opacity:1;fill:#800000;fill-opacity:1;fill-rule:evenodd;stroke:#000000;stroke-width:0.80400002;stroke-linecap:butt;stroke-linejoin:miter;stroke-miterlimit:4;stroke-dasharray:none;stroke-dashoffset:0;stroke-opacity:1;marker:none;color-rendering:auto;image-rendering:auto;shape-rendering:auto;text-rendering:auto;enable-background:accumulate" />
      <path
         sodipodi:nodetypes="ssscccsssssacss"
         inkscape:connector-curvature="0"
         id="path4209"
         d="m -51.837409,1561.7028 c 3.3416,0.3889 5.8244,0.6562 14.0832,-0.7596 8.2587,-1.4158 20.6395,-2.0573 24.4215,-1.5011 3.7820003,0.5562 9.5662003,2.0022 9.5662003,2.0022 l 5.3396,-61.3798 18.9094997,11.8805 c 0,0 2.9565,22.5703 2.0126,29.3346 -0.9438,6.7643 -5.9058,28.2849 -6.462,30.4539 -0.5562,2.1691 -1.6685,7.7864 -7.9532997,7.2303 -6.2847,-0.5562 -88.5982003,-11.0122 -90.1555003,-12.5139 -1.5573,-1.5017 -2.5584,-2.6696 -0.6674,-4.3938 1.891,-1.7241 3.8944,-2.7739 6.1735,-3.1701 3.5184,-0.6117 7.8277,2.2198 10.6229,1.3904 1.6685,-0.5562 5.5064,-3.2873 7.7308,-3.1702 3.1702,0.1668 3.9656,4.3158 6.3784,4.5966 z"
         style="color:#000000;clip-rule:nonzero;display:inline;overflow:visible;visibility:visible;opacity:1;isolation:auto;mix-blend-mode:normal;color-interpolation:sRGB;color-interpolation-filters:linearRGB;solid-color:#000000;solid-opacity:1;fill:#ffffff;fill-opacity:1;fill-rule:evenodd;stroke:#000000;stroke-width:0.80400002;stroke-linecap:butt;stroke-linejoin:miter;stroke-miterlimit:4;stroke-dasharray:none;stroke-dashoffset:0;stroke-opacity:1;marker:none;color-rendering:auto;image-rendering:auto;shape-rendering:auto;text-rendering:auto;enable-background:accumulate" />
      <path
         sodipodi:nodetypes="cscsscccscsssssscc"
         inkscape:connector-curvature="0"
         id="path4158"
         d="m 8.0227913,1439.2645 c 0,0 -2.3597,-8.1015 -2.3597,-9.5959 0,-1.4944 0.3147,-5.5845 0.6293,-6.0564 0.3146,-0.4719 1.7319,-2.3511 4.5961997,-3.5469 2.8643,-1.1958 4.3704,-2.8635 3.5052,-4.2399 -0.8652,-1.3765 -1.8484,-1.6911 -2.0057,-2.4776 -0.1267,-0.5251 -0.8172,-1.9374 -3.2640997,-2.9103 0,0 1.3763997,-1.809 1.2583997,-3.1461 0.039,-0.4326 -0.8651997,-1.1799 -2.0056997,-1.1799 -1.1405,0 -3.7754,-0.1179 -4.326,-0.2359 -0.5506,-0.118 -1.1455,-2.0777 -1.7304,-2.8709 -1.0042,-1.3618 -4.2473,-4.2474 -6.7643,-4.68 -1.7164,-0.295 -6.8309003,-1.0625 -13.3381003,1.9965 -6.5072,3.0589 -9.3135,12.7959 -8.0166,17.5492 1.5016,5.5037 6.8583,10.8427 11.5105,12.1803 3.5703,1.0265 6.2654003,1.5056 6.7374003,3.1574 0.4719,1.6517 2.2023,8.3374 2.2023,8.3374 z"
         style="color:#000000;clip-rule:nonzero;display:inline;overflow:visible;visibility:visible;opacity:1;isolation:auto;mix-blend-mode:normal;color-interpolation:sRGB;color-interpolation-filters:linearRGB;solid-color:#000000;solid-opacity:1;fill:#ffffff;fill-opacity:1;fill-rule:evenodd;stroke:#000000;stroke-width:0.80400002;stroke-linecap:butt;stroke-linejoin:miter;stroke-miterlimit:4;stroke-dasharray:none;stroke-dashoffset:0;stroke-opacity:1;marker:none;color-rendering:auto;image-rendering:auto;shape-rendering:auto;text-rendering:auto;enable-background:accumulate" />
      <path
         sodipodi:nodetypes="csssssccscscssccsssssscc"
         inkscape:connector-curvature="0"
         id="path4160"
         d="m 6.5282913,1433.6013 c 3.6967997,-7.1575 8.2587997,-11.1689 11.4835997,-14.6297 3.2249,-3.4608 11.6409,-14.0792 12.3488,-15.259 0.7079,-1.1799 3.1462,-5.9778 8.888,-10.6184 5.7418,-4.6406 12.4274,-9.7532 14.8657,-10.697 2.4383,-0.9439 6.9216,-3.6182 8.888,-4.0901 1.9664,-0.4719 2.4776,-0.4326 2.7529,0.3933 0.2753,0.8259 -0.3933,1.8877 -0.3933,1.8877 0,0 2.0057,-0.118 2.2024,0.9439 0.1966,1.0618 -1.1012,2.1236 -1.1012,2.1236 0,0 1.4944,-1.2191 2.0843,-0.3932 0.59,0.8258 -0.8652,1.927 -0.8652,1.927 0,0 1.6911,-1.5731 2.281,-0.5506 0.5899,1.0225 -0.5112,4.5227 -1.4944,4.9946 -0.9832,0.4719 -3.1069,1.2585 -4.4047,1.2978 -1.2978,0.039 -2.5956,-1.8484 -4.4046,-1.8877 -1.8091,-0.039 -2.6743,0.5506 -3.5395,1.3371 -0.8652,0.7865 -7.2171,7.8827 -8.6075,8.9395 -1.3905,1.0567 -6.0623,5.1724 -6.9522,5.8954 -0.8899,0.723 -1.9803,4.0815 -3.8287,6.6378 -1.8484,2.5563 -5.6262,9.6024 -8.3515,12.5502 -2.7252,2.9477 -6.4678,7.217 -7.7864,8.9543 -3.1666,4.1722 -1.0567,10.2336 -1.0567,10.2336 z"
         style="color:#000000;clip-rule:nonzero;display:inline;overflow:visible;visibility:visible;opacity:1;isolation:auto;mix-blend-mode:normal;color-interpolation:sRGB;color-interpolation-filters:linearRGB;solid-color:#000000;solid-opacity:1;fill:#ffffff;fill-opacity:1;fill-rule:evenodd;stroke:#000000;stroke-width:0.80400002;stroke-linecap:butt;stroke-linejoin:miter;stroke-miterlimit:4;stroke-dasharray:none;stroke-dashoffset:0;stroke-opacity:1;marker:none;color-rendering:auto;image-rendering:auto;shape-rendering:auto;text-rendering:auto;enable-background:accumulate" />
      <path
         inkscape:connector-curvature="0"
         id="path4162"
         d="m -7.7019087,1398.0198 c -2.4893003,-0.028 -6.0130003,0.389 -10.0800003,2.3008 -6.5072,3.059 -9.3145,12.7955 -8.0176,17.5488 1.5016,5.5037 6.8595,10.8441 11.5117,12.1817 3.4519,0.9924 6.0783003,1.4763 6.6758003,3 1.1241,-0.9797 2.8166,-2.5582 2.6562,-3.1465 -0.236,-0.8652 -2.7525,-3.146 -4.1289,-4.0899 -1.3765003,-0.9438 -2.4777003,-4.3259 0.3145,-6.6855 2.7923,-2.3596 6.4492,-1.2598 6.4492,-1.2598 0,0 -2.8703,-2.0439 -3.8535,-3.0664 -0.9832,-1.0225 -0.039,-1.8575 1.2402,-3.1367 1.2792,-1.2792 -0.3894,-3.1139 -1.2793,-5.0605 -0.8895,-1.9466 -1.279,-3.1142 -0.9453,-5.2832 0.204,-1.3259 0.3162,-2.3136 0.5156,-3.254 -0.3345,-0.022 -0.6725,-0.044 -1.0586,-0.049 z"
         style="color:#000000;clip-rule:nonzero;display:inline;overflow:visible;visibility:visible;opacity:1;isolation:auto;mix-blend-mode:normal;color-interpolation:sRGB;color-interpolation-filters:linearRGB;solid-color:#000000;solid-opacity:1;fill:#000000;fill-opacity:1;fill-rule:evenodd;stroke:#000000;stroke-width:0.80400002;stroke-linecap:butt;stroke-linejoin:miter;stroke-miterlimit:4;stroke-dasharray:none;stroke-dashoffset:0;stroke-opacity:1;marker:none;color-rendering:auto;image-rendering:auto;shape-rendering:auto;text-rendering:auto;enable-background:accumulate" />
      <path
         inkscape:connector-curvature="0"
         id="path4164"
         d="m -25.725309,1405.7269 c -2.3669,-0.054 -4.9202,0.8066 -5.4609,4.0019 -0.8652,5.1126 1.2064,9.0607 2.6347,9.2031 0.9945,0.099 1.9845,-0.2004 2.8887,-0.6328 -0.0444,-0.1433 -0.0975,-0.286 -0.1367,-0.4297 -0.8056,-2.9525 -0.0243,-7.8268 2.2402,-11.83 -0.6586,-0.1642 -1.3898,-0.2949 -2.166,-0.3125 z"
         style="color:#000000;clip-rule:nonzero;display:inline;overflow:visible;visibility:visible;opacity:1;isolation:auto;mix-blend-mode:normal;color-interpolation:sRGB;color-interpolation-filters:linearRGB;solid-color:#000000;solid-opacity:1;fill:#000000;fill-opacity:1;fill-rule:evenodd;stroke:#000000;stroke-width:0.80400002;stroke-linecap:butt;stroke-linejoin:miter;stroke-miterlimit:4;stroke-dasharray:none;stroke-dashoffset:0;stroke-opacity:1;marker:none;color-rendering:auto;image-rendering:auto;shape-rendering:auto;text-rendering:auto;enable-background:accumulate" />
      <path
         sodipodi:nodetypes="csssssssssssscsccssscssssssssscssssscsssccssssssssc"
         inkscape:connector-curvature="0"
         id="path4195"
         d="m -3.7665087,1438.6415 c -5.673,0.6674 -20.1335003,6.3403 -22.6919003,8.7875 -2.5583,2.4471 -7.835,8.5103 -10.7452,9.7687 -2.9103,1.2585 -10.2251,5.6632 -12.1915,5.6632 -1.9664,0 -8.4161,0.079 -12.6634,3.1462 -4.2474,3.0675 -20.2396,14.1248 -23.6878,16.572 -3.4483,2.4471 -7.4527,8.2313 -8.4539,8.6207 -1.0011,0.3893 -4.783,0.3893 -6.340301,0.3893 -1.5573,0 -2.8921,2.1134 -1.0568,2.2247 1.835401,0.1112 4.894401,1.0011 5.673001,1.0011 0.7786,0 -0.7786,1.6685 -2.1134,2.0578 -1.3349,0.3893 -7.285901,2.1691 -7.897701,2.3359 -0.6118,0.1669 -0.8343,2.5028 1.6129,1.9466 2.4472,-0.5561 5.728601,-1.0567 5.728601,-1.0567 0,0 -3.893101,1.1065 -5.269601,1.6964 -1.3764,0.5899 -0.6292,1.7304 0.5113,1.6911 1.1405,-0.039 3.736101,0.118 3.736101,0.118 0,0 -1.258501,2.0843 -2.202301,3.0675 -0.9439,0.9832 1.0225,2.4776 2.005601,0.9439 0.9832,-1.5338 6.6464,-6.2924 7.6295,-7.3542 0.9832,-1.0619 2.4777,-2.1237 2.4777,-2.1237 0,0 0.3146,1.7304 0.1966,3.4215 -0.118,1.691 2.5563,2.4383 2.7529,0.7079 0.1967,-1.7304 0.236,-3.8934 0.6686,-4.444 0.4326,-0.5506 1.3371,-2.0057 1.3764,-3.4608 0.039,-1.4551 0.2753,-4.1687 0.472,-4.798 0.1966,-0.6292 1.1405,-1.691 4.9945,-3.0282 3.8541,-1.3371 18.526,-6.0703 21.8631,-7.9613 3.337,-1.8909 11.0539,-6.1179 11.6832,-6.3538 0.6292,-0.236 13.9218,-4.6406 16.4388,-6.0564 2.5169,-1.4158 10.3037,-6.843 10.3037,-6.843 0,0 1.7304,-0.5899 3.1069,1.4944 1.3764,2.0844 9.7138003,10.933 9.7138003,18.012 0,7.0789 -7.5508003,25.6414 -8.4947003,28.6303 -0.9438,2.9888 0.3147,16.8321 3.6182,22.8098 3.3034003,5.9778 0.7404,12.6881 2.3135003,21.9693 1.5731,9.2813 1.9338,16.5715 1.9338,16.5715 0,0 -7.5508003,-4.09 -15.7309003,-4.09 -8.1801,0 -28.6303,1.5731 -30.3607,1.5731 -1.7304,0 -2.2287,-2.8829 -3.1964,-4.4232 -3.0372,-4.8343 -6.9987,7.5774 -20.8509,2.5791 -2.4472,0 -3.4819,0.9002 -3.4819,0.9002 -1.4157,-0.8652 -4.1686,-0.8652 -3.6181,0.236 0.5506,1.1011 1.8877,3.3821 3.3822,4.7192 1.4944,1.3372 8.4947,4.562 10.3824,5.1912 1.8877,0.6293 18.975,1.8566 24.6479,2.7464 5.673,0.8899 28.0311,4.4494 34.8164,5.1168 6.7853003,0.6674 14.0155003,1.891 14.6830003,1.6686 0.6674,-0.2225 5.3726,0.1428 6.9455997,-8.9812 1.5731,-9.1239 4.786,-26.1223 5.1913,-29.7314 1.0932,-9.736 0.3146,-22.1806 0.3146,-22.1806"
         style="color:#000000;clip-rule:nonzero;display:inline;overflow:visible;visibility:visible;opacity:1;isolation:auto;mix-blend-mode:normal;color-interpolation:sRGB;color-interpolation-filters:linearRGB;solid-color:#000000;solid-opacity:1;fill:#ffffff;fill-opacity:1;fill-rule:evenodd;stroke:#000000;stroke-width:0.80400002;stroke-linecap:butt;stroke-linejoin:miter;stroke-miterlimit:4;stroke-dasharray:none;stroke-dashoffset:0;stroke-opacity:1;marker:none;color-rendering:auto;image-rendering:auto;shape-rendering:auto;text-rendering:auto;enable-background:accumulate" />
      <path
         sodipodi:nodetypes="cccscccssssccscscscscsc"
         inkscape:connector-curvature="0"
         id="path4197"
         d="m -21.046109,1443.8458 c 2.6697,-2.7809 8.1583,-3.5358 9.2707,-4.6482 1.1123,-1.1123 2.7809003,-5.1167 2.7809003,-5.1167 0,0 2.5583,-0.2225 6.0066,0.4449 3.44829996,0.6674 6.4516,2.0022 7.0078,1.6685 0.5562,-0.3337 2.5584,-4.5606 2.5584,-4.5606 0,0 1.446,-0.1112 2.4471,0 1.0011997,0.1112 3.3370997,3.782 5.0055997,5.3392 1.6685,1.5573 4.3381,4.5607 5.0055,4.6719 0.6675,0.1112 6.2292,7.8976 7.2303,11.3459 1.0011,3.4483 1.446,8.1201 1.1123,9.6774 -0.3337,1.5573 -1.2235,6.1179 -1.2235,9.1212 0.3025,13.9031 -4.5853,28.2676 -3.8933,40.7119 0.2225,2.6696 1.891,9.8998 1.5573,11.6796 -0.3337,1.7797 -6.4516,8.3426 -8.0089,8.8987 -1.5572,0.5562 -8.4537997,-11.0122 -16.9075997,-11.6796 -8.4538,-0.6674 -15.0166003,5.1168 -15.0166003,5.1168 0,0 -2.2247,-14.3492 -0.8899,-16.5739 1.3348,-2.2247 4.8943,-9.01 7.3414003,-16.2403 2.4472,-7.2302 6.0067,-14.4604 1.3349,-22.0244 -4.6719003,-7.5639 -7.5640003,-10.7897 -7.5640003,-10.7897 0,0 7.8858003,3.583 9.6774003,0 7.5225,-15.0444 -7.2110003,-19.0102 -14.8324003,-17.0426 z"
         style="color:#000000;clip-rule:nonzero;display:inline;overflow:visible;visibility:visible;opacity:1;isolation:auto;mix-blend-mode:normal;color-interpolation:sRGB;color-interpolation-filters:linearRGB;solid-color:#000000;solid-opacity:1;fill:#800000;fill-opacity:1;fill-rule:evenodd;stroke:#000000;stroke-width:0.80400002;stroke-linecap:butt;stroke-linejoin:miter;stroke-miterlimit:4;stroke-dasharray:none;stroke-dashoffset:0;stroke-opacity:1;marker:none;color-rendering:auto;image-rendering:auto;shape-rendering:auto;text-rendering:auto;enable-background:accumulate" />
      <path
         inkscape:connector-curvature="0"
         id="path4216"
         d="m 1.9620913,1404.3256 c 0,0 -1.11240004,0.9455 -2.39160004,2.6697 -1.27919996,1.7241 -1.55729996,3.0589 -1.55729996,3.0589 0,0 1.72419996,-2.7809 2.94769996,-3.7264 1.22360004,-0.9454 1.22360004,-2.0578 1.22360004,-2.0578 z"
         style="color:#000000;clip-rule:nonzero;display:inline;overflow:visible;visibility:visible;opacity:1;isolation:auto;mix-blend-mode:normal;color-interpolation:sRGB;color-interpolation-filters:linearRGB;solid-color:#000000;solid-opacity:1;fill:#000000;fill-opacity:1;fill-rule:evenodd;stroke:none;stroke-width:0.80400002;stroke-linecap:butt;stroke-linejoin:miter;stroke-miterlimit:4;stroke-dasharray:none;stroke-dashoffset:0;stroke-opacity:1;marker:none;color-rendering:auto;image-rendering:auto;shape-rendering:auto;text-rendering:auto;enable-background:accumulate" />
      <path
         inkscape:connector-curvature="0"
         id="path4223"
         d="m 2.4382913,1407.9206 0.7079,0.6292 c 0,0 -0.039,2.0057 -1.1798,2.3203 -1.14050004,0.3147 -1.37650004,-0.1179 -1.37650004,-0.1179 0,0 0.62930004,-1.4552 1.02250004,-1.8091 0.3933,-0.3539 0.8259,-1.0225 0.8259,-1.0225 z"
         style="color:#000000;clip-rule:nonzero;display:inline;overflow:visible;visibility:visible;opacity:1;isolation:auto;mix-blend-mode:normal;color-interpolation:sRGB;color-interpolation-filters:linearRGB;solid-color:#000000;solid-opacity:1;fill:#000000;fill-opacity:1;fill-rule:evenodd;stroke:none;stroke-width:0.80400002;stroke-linecap:butt;stroke-linejoin:miter;stroke-miterlimit:4;stroke-dasharray:none;stroke-dashoffset:0;stroke-opacity:1;marker:none;color-rendering:auto;image-rendering:auto;shape-rendering:auto;text-rendering:auto;enable-background:accumulate" />
      <circle
         r="14.969423"
         cy="1282.4694"
         cx="131.38333"
         id="path4138"
         style="color:#000000;clip-rule:nonzero;display:inline;overflow:visible;visibility:visible;opacity:1;isolation:auto;mix-blend-mode:normal;color-interpolation:sRGB;color-interpolation-filters:linearRGB;solid-color:#000000;solid-opacity:1;fill:#008000;fill-opacity:1;fill-rule:evenodd;stroke:#000000;stroke-width:0.80400002;stroke-linecap:butt;stroke-linejoin:miter;stroke-miterlimit:4;stroke-dasharray:none;stroke-dashoffset:0;stroke-opacity:1;marker:none;color-rendering:auto;image-rendering:auto;shape-rendering:auto;text-rendering:auto;enable-background:accumulate" />
    </g>
  </g>
</svg>
